<svg aria-hidden="true" style="position: absolute; width: 0; height: 0; overflow: hidden;" version="1.1" xmlns="http://www.w3.org/2000/svg" xmlns:xlink="http://www.w3.org/1999/xlink">
<defs>
<symbol id="icon-chevron-left" viewBox="0 0 32 32">
<path d="M12.552 16l8.781 8.781c0.521 0.521 0.521 1.365 0 1.886s-1.365 0.521-1.886 0l-10.667-10.667 10.667-10.667c0.521-0.521 1.365-0.521 1.886 0s0.521 1.365 0 1.886l-8.781 8.781z"></path>
</symbol>
<symbol id="icon-chevron-right" viewBox="0 0 32 32">
<path d="M19.447 16l-8.781 8.781c-0.521 0.521-0.521 1.365 0 1.886s1.365 0.521 1.886 0l10.667-10.667-10.667-10.667c-0.521-0.521-1.365-0.521-1.886 0s-0.521 1.365 0 1.886l8.781 8.781z"></path>
</symbol>
<symbol id="icon-email" viewBox="0 0 32 32">
<path fill="#ff6e40" style="fill: var(--color1, #ff6e40)" d="M16 0c8.837 0 16 7.163 16 16s-7.163 16-16 16c-8.837 0-16-7.163-16-16s7.163-16 16-16z"></path>
<path fill="#251d1a" style="fill: var(--color2, #251d1a)" d="M21.752 18.972c0 0.252-0.071 0.486-0.185 0.692l-3.632-4.064 3.593-3.143c0.14 0.222 0.224 0.482 0.224 0.764v5.752zM16 16.337l4.999-4.374c-0.205-0.112-0.436-0.181-0.685-0.181h-8.627c-0.249 0-0.481 0.069-0.685 0.181l4.999 4.374zM17.394 16.073l-1.157 1.013c-0.068 0.059-0.152 0.088-0.237 0.088s-0.169-0.029-0.237-0.088l-1.157-1.013-3.678 4.116c0.22 0.138 0.479 0.221 0.758 0.221h8.628c0.279 0 0.538-0.083 0.758-0.221l-3.678-4.116zM10.472 12.456c-0.14 0.222-0.224 0.482-0.224 0.764v5.752c0 0.252 0.071 0.486 0.185 0.692l3.632-4.064-3.592-3.143z"></path>
</symbol>
<symbol id="icon-map" viewBox="0 0 32 32">
<path fill="#ff6e40" style="fill: var(--color1, #ff6e40)" d="M16 0c8.837 0 16 7.163 16 16s-7.163 16-16 16c-8.837 0-16-7.163-16-16s7.163-16 16-16z"></path>
<path fill="#251d1a" style="fill: var(--color2, #251d1a)" d="M20.278 12.726c-0.046-0.174-0.141-0.359-0.21-0.521-0.834-2.005-2.657-2.723-4.129-2.723-1.97 0-4.14 1.321-4.43 4.044v0.556c0 0.023 0.008 0.232 0.019 0.336 0.162 1.298 1.186 2.677 1.951 3.975 0.823 1.39 1.677 2.758 2.522 4.125 0.522-0.892 1.041-1.796 1.551-2.665 0.139-0.255 0.3-0.51 0.439-0.753 0.093-0.162 0.27-0.324 0.351-0.475 0.823-1.506 2.147-3.024 2.147-4.519v-0.614c0-0.162-0.201-0.73-0.212-0.765zM15.975 15.519c-0.579 0-1.213-0.29-1.526-1.089-0.047-0.127-0.043-0.382-0.043-0.406v-0.359c0-1.020 0.866-1.483 1.619-1.483 0.927 0 1.644 0.742 1.644 1.669s-0.767 1.669-1.694 1.669z"></path>
</symbol>
<symbol id="icon-phone" viewBox="0 0 32 32">
<path fill="#ff6e40" style="fill: var(--color1, #ff6e40)" d="M16 0c8.837 0 16 7.163 16 16s-7.163 16-16 16c-8.837 0-16-7.163-16-16s7.163-16 16-16z"></path>
<path fill="#251d1a" style="fill: var(--color2, #251d1a)" d="M20.446 17.637c-0.471-0.465-1.059-0.465-1.528 0-0.357 0.354-0.714 0.708-1.065 1.068-0.096 0.099-0.177 0.12-0.294 0.054-0.231-0.126-0.477-0.228-0.699-0.366-1.035-0.651-1.903-1.489-2.671-2.431-0.381-0.468-0.72-0.969-0.957-1.534-0.048-0.114-0.039-0.189 0.054-0.282 0.357-0.345 0.705-0.699 1.056-1.053 0.489-0.492 0.489-1.068-0.003-1.564-0.279-0.282-0.558-0.558-0.837-0.84-0.288-0.288-0.573-0.579-0.864-0.864-0.471-0.459-1.059-0.459-1.528 0.003-0.36 0.354-0.705 0.717-1.071 1.065-0.339 0.321-0.51 0.714-0.546 1.173-0.057 0.747 0.126 1.453 0.384 2.14 0.528 1.423 1.332 2.686 2.308 3.844 1.317 1.567 2.89 2.806 4.73 3.7 0.828 0.402 1.687 0.711 2.62 0.762 0.642 0.036 1.2-0.126 1.648-0.627 0.306-0.342 0.651-0.654 0.975-0.981 0.48-0.486 0.483-1.074 0.006-1.555-0.57-0.573-1.143-1.143-1.717-1.714z"></path>
</symbol>
<symbol id="icon-time" viewBox="0 0 32 32">
<path fill="#ff6e40" style="fill: var(--color1, #ff6e40)" d="M16 0c8.837 0 16 7.163 16 16s-7.163 16-16 16c-8.837 0-16-7.163-16-16s7.163-16 16-16z"></path>
<path fill="#251d1a" style="fill: var(--color2, #251d1a)" d="M16 21.975c-3.3 0-5.975-2.675-5.975-5.975s2.675-5.975 5.975-5.975c3.3 0 5.975 2.675 5.975 5.975s-2.675 5.975-5.975 5.975zM16.544 15.457h2.173v1.086h-3.259v-4.395h1.086v3.309z"></path>
</symbol>
<symbol id="icon-logo" viewBox="0 0 32 32">
<path fill="#ff6e40" style="fill: var(--color1, #ff6e40)" d="M27.155 5.201c-6.284 0-11.378 5.094-11.378 11.378 6.284 0 11.378-5.094 11.378-11.378z"></path>
<path fill="#ff6e40" style="fill: var(--color1, #ff6e40)" d="M27.155 26.536c-6.284 0-11.378-5.094-11.378-11.378 6.284 0 11.378 5.094 11.378 11.378z"></path>
<path fill="#ff6e40" style="fill: var(--color1, #ff6e40)" d="M15.777 16.58c-6.284 0-11.378-5.094-11.378-11.378 6.284 0 11.378 5.094 11.378 11.378z"></path>
<path fill="#ff6e40" style="fill: var(--color1, #ff6e40)" d="M15.777 15.156c-6.284 0-11.378 5.094-11.378 11.378 6.284 0 11.378-5.094 11.378-11.378z"></path>
<path fill="#ff6e40" style="fill: var(--color1, #ff6e40)" d="M31.156 16.092c-4.443-4.443-11.647-4.443-16.091 0 4.443 4.443 11.647 4.443 16.091 0z"></path>
<path fill="#ff6e40" style="fill: var(--color1, #ff6e40)" d="M16.934 16.092c-4.443-4.443-11.647-4.443-16.091 0 4.443 4.443 11.647 4.443 16.091 0z"></path>
<path fill="#ff6e40" style="fill: var(--color1, #ff6e40)" d="M16 16.091c-4.443-4.443-4.443-11.647 0-16.091 4.443 4.443 4.443 11.647 0 16.091z"></path>
<path fill="#ff6e40" style="fill: var(--color1, #ff6e40)" d="M16 15.646c-4.443 4.443-4.443 11.647 0 16.090 4.443-4.443 4.443-11.647 0-16.090z"></path>
</symbol>
<symbol id="icon-refresh" viewBox="0 0 32 32">
<path fill="" style="" d="M16 5.333c3.191 0 5.929 1.438 7.743 4h-5.076v2.667h9.333v-9.333h-2.667v4.36c-2.3-2.784-5.594-4.36-9.333-4.36-7.364 0-13.333 5.97-13.333 13.333h2.667c0-5.891 4.776-10.667 10.667-10.667zM16 26.667c-3.191 0-5.929-1.438-7.743-4h5.076v-2.667h-9.333v9.333h2.667v-4.36c2.3 2.784 5.594 4.36 9.333 4.36 7.364 0 13.333-5.97 13.333-13.333h-2.667c0 5.891-4.776 10.667-10.667 10.667z"></path>
</symbol>
</defs>
</svg>
